<svg width="175" height="175" viewBox="0 0 175 175" fill="none" xmlns="http://www.w3.org/2000/svg">
<g clip-path="url(#clip0_25_2)">
<path d="M138.759 64.462H36.001C35.354 64.462 34.756 64.561 34.159 64.81C32.068 65.557 30.525 67.548 30.525 69.888L30.425 84.376L29.977 168.812C29.977 171.799 32.416 174.239 35.403 174.239H138.16C141.197 174.239 143.686 171.8 143.686 168.812L144.184 69.888C144.235 66.902 141.796 64.462 138.759 64.462ZM54.572 89.007H66.023V149.696H54.572V89.007ZM81.356 89.007H92.807V149.696H81.356V89.007ZM119.641 149.695H108.19V89.007H119.641V149.695Z" fill="white"/>
<path d="M138.795 44.875C141.802 44.875 144.262 42.415 144.262 39.408V24.668C144.262 21.661 141.802 19.201 138.795 19.201H113.662C110.655 19.201 108.195 16.741 108.195 13.734V5.467C108.195 2.46 105.735 0 102.728 0H72.168C69.161 0 66.692 2.46 66.681 5.467L66.65 13.735C66.639 16.742 64.169 19.202 61.163 19.202H36.029C33.022 19.202 30.562 21.662 30.562 24.669V39.41C30.562 42.417 33.022 44.877 36.029 44.877H138.795V44.875Z" fill="white"/>
</g>
<defs>
<clipPath id="clip0_25_2">
<rect width="174.239" height="174.239" fill="white"/>
</clipPath>
</defs>
</svg>
